<svg id="objects" xmlns="http://www.w3.org/2000/svg" xmlns:xlink="http://www.w3.org/1999/xlink" viewBox="0 0 305.39 226.36"><defs><style>.cls-1{fill:none;}.cls-2{clip-path:url(#clip-path);}.cls-3{fill:#fff;}.cls-4{clip-path:url(#clip-path-2);}.cls-5{clip-path:url(#clip-path-3);}</style><clipPath id="clip-path"><polyline class="cls-1" points="100.24 143.14 39.63 143.14 39.63 158.21 100.24 158.21 100.24 143.14"/></clipPath><clipPath id="clip-path-2"><polyline class="cls-1" points="245.52 143.35 205.04 143.35 205.04 158.04 245.52 158.04 245.52 143.35"/></clipPath><clipPath id="clip-path-3"><polyline class="cls-1" points="178.63 194.7 124.54 194.7 124.54 214.98 178.63 214.98 178.63 194.7"/></clipPath></defs><title>33913-NZCXC8</title><g class="cls-2"><path class="cls-3" d="M40.85,154.09c.44,1.94,1.73,3.09,4.13,3.09,2.67,0,3.69-1.33,3.69-2.92s-.74-2.66-4-3.46-4.46-1.79-4.46-3.91c0-1.95,1.41-3.75,4.57-3.75s4.61,2,4.8,3.77H48.41c-.33-1.56-1.35-2.69-3.65-2.69-2.1,0-3.24,1-3.24,2.6s.95,2.23,3.65,2.9c4.14,1,4.76,2.68,4.76,4.45,0,2.18-1.59,4-5,4-3.67,0-5-2.13-5.3-4.12Z"/><path class="cls-3" d="M54.94,143.35V158H53.76V143.35Z"/><path class="cls-3" d="M59.87,158V143.35H61.6c2.28,3.52,7.61,11.68,8.53,13.28h0C70,154.52,70,152.35,70,150v-6.61h1.19V158h-1.6L61,144.53h0c.1,1.92.08,4.08.08,6.74V158Z"/><path class="cls-3" d="M87.05,154.11a5.38,5.38,0,0,1-5.54,4.1c-4.23,0-6.45-3.36-6.45-7.49,0-4,2.18-7.58,6.47-7.58,3.19,0,5.06,1.78,5.54,4.23H85.89a4.22,4.22,0,0,0-4.42-3.15c-3.63,0-5.15,3.32-5.15,6.48s1.5,6.43,5.23,6.43a4.29,4.29,0,0,0,4.32-3Z"/><path class="cls-3" d="M99.5,150.84H92V157h8.2l-.17,1.08h-9.2V143.35h9v1.08H92v5.33H99.5Z"/></g><g class="cls-4"><path class="cls-3" d="M205,158V158c0-1.74,1.46-3.88,4.22-6,2.38-1.86,3-2.42,3-4.15a2.58,2.58,0,0,0-2.81-2.8c-1.88,0-2.85.9-3.21,2.9h-1.11a4.08,4.08,0,0,1,4.32-3.93,3.66,3.66,0,0,1,4,3.76c0,2.14-.9,2.86-3.46,4.95-2,1.65-3.25,3-3.67,4.29H214l-.19,1.06Z"/><path class="cls-3" d="M217.38,143.35h1.18V151c1.17-1.14,5.34-5.07,7.95-7.62h1.56l-6.58,6.25,6.95,8.44H227l-6.34-7.67-2.09,1.83V158h-1.18Z"/><path class="cls-3" d="M229.86,158V158c0-1.74,1.46-3.88,4.22-6,2.38-1.86,3-2.42,3-4.15a2.58,2.58,0,0,0-2.81-2.8c-1.88,0-2.85.9-3.21,2.9h-1.11a4.09,4.09,0,0,1,4.32-3.93,3.67,3.67,0,0,1,4,3.76c0,2.14-.91,2.86-3.47,4.95-2,1.65-3.25,3-3.67,4.29h7.7l-.19,1.06Z"/><path class="cls-3" d="M244.36,158V145.6a9.19,9.19,0,0,1-3.09,1.59v-1a11.38,11.38,0,0,0,3.3-2.06h.93V158Z"/></g><g class="cls-5"><path class="cls-3" d="M144,213.81,141.74,215c0-.11-.36-.84-.94-2.18s-1.36-3.08-2.32-5.2h-8.67q-1.55,3.4-2.39,5.28c-.55,1.25-.86,2-.92,2.1l-2-1.06q.38-.77,3.14-6.72t5.73-12.51h1.91q2.93,6.56,5.75,12.71Zm-6.37-8.08c-.52-1.19-1.06-2.44-1.64-3.74s-1.17-2.66-1.81-4.07h-.06q-.73,1.6-1.77,4c-.7,1.57-1.27,2.85-1.72,3.84v0h7Z"/><path class="cls-3" d="M160.74,201.69a6.08,6.08,0,0,1-1.38,3.87,6.89,6.89,0,0,1-3.7,2.34,14.8,14.8,0,0,1-2.17.38,26,26,0,0,1-2.63.12l0,6.19h-2.41c0-.58,0-1.67,0-3.26s0-4,0-7.36c0-1.05,0-2.35,0-3.88s0-3.24-.06-5.11l1.23,0h1a24.06,24.06,0,0,1,4.31.33,8.13,8.13,0,0,1,3,1.1,5.59,5.59,0,0,1,2,2.17A6.75,6.75,0,0,1,160.74,201.69Zm-2.49,0a4.28,4.28,0,0,0-2.8-4.25,6.55,6.55,0,0,0-1.9-.48c-.69-.06-1.39-.09-2.11-.09h-.55c0,.11,0,.84,0,2.2s0,2.43,0,3.22v2.56c0,1,0,1.55,0,1.69h.59a17.16,17.16,0,0,0,2.08-.14,6.21,6.21,0,0,0,1.9-.48,4.72,4.72,0,0,0,2.1-1.62A4.44,4.44,0,0,0,158.25,201.69Z"/><path class="cls-3" d="M178.56,201.69a6.09,6.09,0,0,1-1.39,3.87,6.83,6.83,0,0,1-3.69,2.34,14.8,14.8,0,0,1-2.17.38,26.17,26.17,0,0,1-2.63.12l0,6.19H166.3c0-.58,0-1.67,0-3.26s0-4,0-7.36c0-1.05,0-2.35,0-3.88s0-3.24,0-5.11l1.23,0h1a24.06,24.06,0,0,1,4.31.33,8.13,8.13,0,0,1,3,1.1,5.56,5.56,0,0,1,2,2.17A6.63,6.63,0,0,1,178.56,201.69Zm-2.49,0a4.28,4.28,0,0,0-2.8-4.25,6.53,6.53,0,0,0-1.91-.48c-.68-.06-1.38-.09-2.11-.09h-.54c0,.11,0,.84,0,2.2s0,2.43,0,3.22,0,1.58,0,2.56,0,1.55,0,1.69h.58a17.32,17.32,0,0,0,2.09-.14,6.21,6.21,0,0,0,1.9-.48,4.72,4.72,0,0,0,2.1-1.62A4.51,4.51,0,0,0,176.07,201.69Z"/></g><path class="cls-3" d="M156.62,152.13l-3.92,2,101,50.38-3.21,6.42a1.74,1.74,0,0,0,1.54,2.59,1.73,1.73,0,0,0,1.56-1l3.24-6.49,8.78,4.38a1.81,1.81,0,0,0,.78.18,1.75,1.75,0,0,0,1.75-1.6,1.79,1.79,0,0,0-1-1.74l-8.74-4.35,3.21-6.42a1.79,1.79,0,0,0-.28-2.08,1.76,1.76,0,0,0-2.82.45l-3.24,6.49-98.64-49.21M24,113.88c-2.06,0-6.62-5.79-7.71-7.16a47.61,47.61,0,0,1-5.84-9.57A90.29,90.29,0,0,1,6,85.1l3.55,1.77a74.3,74.3,0,0,1,7.69,8.07c1.51,1.87,13.71,18.41,6.87,18.93H24M5.47,73.23a5.39,5.39,0,0,0-4.1,1.82,5.51,5.51,0,0,0,.94,8.12C4.62,91,7.26,98.88,11.88,105.71c2,3,8.1,11.49,12.89,11.49a3.56,3.56,0,0,0,2-.6c5.92-3.87.07-13.21-2.51-17.13A76.16,76.16,0,0,0,17.77,91l25.09,12.52,1.67-3.36,104.25,52,3.92-2L46.09,97l1.68-3.36L8.12,73.86a5.93,5.93,0,0,0-2.65-.63"/><path class="cls-3" d="M281.35,113.88h-.08c-6.84-.52,5.36-17.06,6.88-18.93a73.26,73.26,0,0,1,7.68-8.07l3.55-1.77a90.29,90.29,0,0,1-4.48,12.05,48,48,0,0,1-5.83,9.57c-1.1,1.37-5.66,7.16-7.72,7.16m18.58-40.65a5.94,5.94,0,0,0-2.66.63L257.62,93.64,259.3,97,152.7,150.17l-3.92,2L50.13,201.34l-3.2-6.43a1.85,1.85,0,0,0-1.59-1,1,1,0,0,0-.24,0,1.75,1.75,0,0,0-1.34,2.52L47,202.9l-8.73,4.35a1.78,1.78,0,0,0-1,1.74,1.75,1.75,0,0,0,1.75,1.6,1.81,1.81,0,0,0,.78-.18L48.56,206l3.24,6.49a1.75,1.75,0,0,0,1.57,1,1.78,1.78,0,0,0,1.28-.55,1.81,1.81,0,0,0,.25-2.05l-3.21-6.41,101-50.38,3.92-2,104.24-52,1.68,3.36L287.62,91a76.08,76.08,0,0,0-6.5,8.5c-2.59,3.92-8.44,13.26-2.52,17.13a3.56,3.56,0,0,0,2,.6c4.8,0,10.88-8.51,12.9-11.49,4.61-6.83,7.25-14.68,9.56-22.54a5.51,5.51,0,0,0,.94-8.12,5.36,5.36,0,0,0-4.09-1.82"/><path class="cls-3" d="M88.11,104.34s-1.36-2.1-.75-3.5.3-5.91.94-8.77a34.48,34.48,0,0,1,4.15-9.92,22.44,22.44,0,0,0,2.12-4.37,1.53,1.53,0,0,1,1.44-1,1.5,1.5,0,0,1,1.08.45l10,10.09a11.16,11.16,0,0,1-2,1.08c-.92.32-4.14,5.07-7.12,9s-9.82,7-9.82,7m116.75.25L188,86.68s7.75-9.42,9.58-11.75a8.91,8.91,0,0,1,2.57-2.14,1.67,1.67,0,0,1,.79-.21,1.58,1.58,0,0,1,1.59,1.57,14.78,14.78,0,0,0,.72,5.11c1,2.17,1.33,10.5,2.16,14.33s-.5,11-.5,11m-71.75,3.71-9.58-9.78c-1.72-1.75-3.55-3.74-3.67-6.19s1.34-4.42,2.73-6.29l5.92-8q8.48-11.4,16.94-22.79c1.34-1.81,3.09-4.41,5.15-4.41a2.54,2.54,0,0,1,.8.14,7.43,7.43,0,0,1,2.49,2.12l6.59,9.09a3.87,3.87,0,0,1,.7,1.31c.3,1.26-.71,2.41-1.58,3.36a71.3,71.3,0,0,0-6.66,8.94,43.88,43.88,0,0,0-5.16,9.3A48.88,48.88,0,0,1,146.05,90c-1.29,2.7-3.56,4.79-5.38,7.18a24.78,24.78,0,0,0-4.55,10.17l-3,.93m17.37-60.57a5.58,5.58,0,0,0-2.12.45c-5,2-33.5,40.66-33.5,40.66s-3.33-3.33-9.5-8.33c-4-3.2-8.5-8.67-11.5-8.67S67.7,99.18,67.7,99.18l84.66,42.33L237.7,99.18S206,71.51,202,69.84a1.74,1.74,0,0,0-.61-.11c-4.49,0-15.39,15.45-15.39,15.45s-19.67-21.34-25-27.67c-4.52-5.37-6.89-9.78-10.55-9.78"/><path class="cls-3" d="M79.75,47a8.9,8.9,0,0,1-5-.58,9.7,9.7,0,0,1-3.56-2.35,4.46,4.46,0,0,1-1.32-3,3,3,0,0,1,1.7-2.65,7.67,7.67,0,0,0,2.08,3.43,7.38,7.38,0,0,0,3,1.71,7.72,7.72,0,0,0,3.32.18,7.28,7.28,0,0,0,3-1.19,7.08,7.08,0,0,0,2.17-2.48,7,7,0,0,0,.75-3.66,4.48,4.48,0,0,0-1.53-3.31,10,10,0,0,0-3.51-1.82,32.78,32.78,0,0,0-4.66-1,41.67,41.67,0,0,1-4.83-1,13.68,13.68,0,0,1-4.09-1.79A5.74,5.74,0,0,1,64.94,24a8,8,0,0,1,0-4.22,9.66,9.66,0,0,1,1.92-3.6,12.47,12.47,0,0,1,3.26-2.7A15.45,15.45,0,0,1,74,11.91a10.37,10.37,0,0,1,3-.25,9.39,9.39,0,0,1,3,.65A4.45,4.45,0,0,1,82.19,14a3,3,0,0,1,.17,2.69c-.64-.31-1.27-.59-1.88-.85a16,16,0,0,0-1.84-.63,8.47,8.47,0,0,0-1.89-.3,7.28,7.28,0,0,0-2.11.24,8,8,0,0,0-4.77,2.82,6.41,6.41,0,0,0-1.07,4.71,3,3,0,0,0,1.8,2.42,15.55,15.55,0,0,0,3.83,1.22c1.5.3,3.1.59,4.79.88A22,22,0,0,1,84,28.5a10.6,10.6,0,0,1,3.76,2.58,7.32,7.32,0,0,1,1.76,4.5A9.75,9.75,0,0,1,89,39.91a9.43,9.43,0,0,1-2,3.28,11.44,11.44,0,0,1-3.19,2.32A15.89,15.89,0,0,1,79.75,47Z"/><path class="cls-3" d="M95.32,42.61q-2.22-8.38-4.41-16.8T86.3,8A2.93,2.93,0,0,1,89,8.36a6,6,0,0,1,1.81,2.43,22.44,22.44,0,0,1,1.28,3.82c.37,1.46.74,3,1.11,4.52.68-.72,1.49-1.7,2.44-2.93s1.95-2.56,3-4,2.13-2.85,3.24-4.29,2.12-2.75,3-3.9a2.59,2.59,0,0,1,1.22,3.11,14.73,14.73,0,0,1-2.2,4.54q-1.68,2.49-3.92,5.19T96,22q1.81,1.52,3.91,3T104,28.1q2,1.57,3.81,3.09a25.46,25.46,0,0,1,2.94,2.95,7.59,7.59,0,0,1,1.56,2.79,3,3,0,0,1-.27,2.48,194.45,194.45,0,0,0-17.23-13.5A21.58,21.58,0,0,0,95.53,29c.33,1.13.66,2.29,1,3.48s.59,2.35.82,3.48a15.56,15.56,0,0,1,.32,3.11,4.71,4.71,0,0,1-.55,2.36A2.48,2.48,0,0,1,95.32,42.61Z"/><path class="cls-3" d="M110.4,3.52a3.37,3.37,0,0,1,1.94,0,3.33,3.33,0,0,1,1.6,1,3.52,3.52,0,0,1,.7,1.23,17.12,17.12,0,0,1,.57,2.79q2.33,14.48,4.6,28.94a1.54,1.54,0,0,1-1,.36,3,3,0,0,1-1.19-.27,3,3,0,0,1-1.06-.82,2.84,2.84,0,0,1-.66-1.29Q113.16,19.49,110.4,3.52Z"/><path class="cls-3" d="M148.61,35.33a11.94,11.94,0,0,1-6.1-1,12.62,12.62,0,0,1-4.42-3.52,16.07,16.07,0,0,1-2.79-5.42,24.83,24.83,0,0,1-1.06-6.69,18.27,18.27,0,0,1,.73-5.83A18.94,18.94,0,0,1,137.2,8a19.16,19.16,0,0,1,3.17-3.75,16.07,16.07,0,0,1,3.5-2.45,14.44,14.44,0,0,1,3.69-1.3,9.9,9.9,0,0,1,3.25-.16,4.91,4.91,0,0,1,2.36.9A2.2,2.2,0,0,1,154.08,3a16.19,16.19,0,0,0-6.49,1.13,14.9,14.9,0,0,0-5,3.34,14.12,14.12,0,0,0-3.14,5,17.1,17.1,0,0,0-1,6.31,20.66,20.66,0,0,0,1.09,6.51,10.51,10.51,0,0,0,3,4.55,10.46,10.46,0,0,0,5.09,2.27,22.43,22.43,0,0,0,7.56-.25,3.31,3.31,0,0,1-2,2.42A12.3,12.3,0,0,1,148.61,35.33Z"/><path class="cls-3" d="M158.39,35.24q0-.93.12-3.54c.06-1.73.15-3.77.27-6.09s.24-4.8.37-7.43.26-5.15.39-7.55.24-4.55.34-6.44S160,.9,160.06,0a3.75,3.75,0,0,1,1.87.38,3.2,3.2,0,0,1,1.23,1.1A3.17,3.17,0,0,1,163.67,3a4.51,4.51,0,0,1-.16,1.63A11.82,11.82,0,0,1,167.16,2,13.06,13.06,0,0,1,171.34.83a12.51,12.51,0,0,1,4.71.4,8.83,8.83,0,0,1,3.53,1.88,6.6,6.6,0,0,1,1.91,3,6.47,6.47,0,0,1,0,3.6A8.8,8.8,0,0,1,179,14a15.18,15.18,0,0,1-4.15,2.76,17.73,17.73,0,0,1-4.75,1.39,20.32,20.32,0,0,1-4.44.21A201.36,201.36,0,0,1,179,36.46a3.8,3.8,0,0,1-2.82-.38,12.37,12.37,0,0,1-2.93-2.25,31.44,31.44,0,0,1-2.92-3.43c-1-1.31-1.92-2.61-2.85-3.92s-1.81-2.55-2.61-3.72-1.52-2.12-2.12-2.85q-.36,5.67-.75,8.79a25.27,25.27,0,0,1-.9,4.6c-.34,1-.72,1.56-1.17,1.72A4,4,0,0,1,158.39,35.24ZM163,15c.2.23,1.87.24,3.3.3a19.32,19.32,0,0,0,4.37-.35,13.17,13.17,0,0,0,4.28-1.64,7.11,7.11,0,0,0,3-3.7,4.18,4.18,0,0,0,.28-2.21,3.9,3.9,0,0,0-.92-2A5,5,0,0,0,175.17,4,7.06,7.06,0,0,0,172,3.7a8.78,8.78,0,0,0-3.67,1.23A10.28,10.28,0,0,0,165.4,7.5,11.87,11.87,0,0,0,163.52,11C163.07,12.29,162.65,14.63,163,15Z"/><path class="cls-3" d="M185.7,37.48a5.61,5.61,0,0,1-2.27-.84,2.07,2.07,0,0,1-.85-2.18Q184.21,20,185.81,5.52a3,3,0,0,1,1.46-2.33,4.93,4.93,0,0,1,3.24-.48c8,1.13,12,1.84,20,3.57a1.44,1.44,0,0,1,0,1,2.11,2.11,0,0,1-.76.91,3.76,3.76,0,0,1-1.31.59,3.62,3.62,0,0,1-1.64,0c-6.84-1.43-10.28-2-17.19-3a4.82,4.82,0,0,0,0,.53c0,.23-.07.73-.17,1.48s-.25,1.87-.43,3.34-.43,3.51-.75,6.11c5.71.8,8.56,1.27,14.23,2.39a1.33,1.33,0,0,1-.06,1,2.4,2.4,0,0,1-.73.87,3.15,3.15,0,0,1-1.26.54,4.14,4.14,0,0,1-1.57,0c-4.38-.74-6.58-1.05-11-1.6-.66,5.5-1,8.24-1.66,13.73,7.24,1.07,10.85,1.74,18,3.36a1.36,1.36,0,0,1-.1,1,2.34,2.34,0,0,1-.71.87,2.88,2.88,0,0,1-1.19.52,3.47,3.47,0,0,1-1.47,0C194.69,38.77,191.7,38.28,185.7,37.48Z"/><path class="cls-3" d="M210.93,41.17c.14-.92.33-2.21.52-3.83s.4-3.46.61-5.52.41-4.25.62-6.55.4-4.57.6-6.81.4-4.37.61-6.36.44-3.71.68-5.14c1.46.42,2.33,1.07,2.62,1.92a10.47,10.47,0,0,1,.44,3.22c0,.24-.07,1-.17,2.19s-.21,2.7-.35,4.41-.32,3.56-.54,5.52-.41,3.81-.6,5.54-.36,3.19-.51,4.41-.25,1.93-.31,2.16a22.63,22.63,0,0,0,1.71-1.94c.74-.91,1.52-1.82,2.35-2.73s1.59-1.71,2.32-2.39,1.3-1,1.69-1,.92.44,1.18,1.23a16.18,16.18,0,0,1,.62,3.06c.16,1.25.29,2.66.4,4.22s.25,3.14.44,4.72c.78-1.36,1.63-2.84,2.57-4.44s1.88-3.24,2.83-4.9,1.88-3.29,2.81-4.88,1.78-3,2.57-4.36,1.49-2.44,2.08-3.38a15.88,15.88,0,0,1,1.34-1.92,5,5,0,0,1,2.41-1.77,4.23,4.23,0,0,1,2.39.23q-1.79,3.09-3.71,6.29l-3.76,6.26q-1.83,3.06-3.51,5.82t-3,5q-1.34,2.24-2.25,3.81c-.61,1.06-1,1.8-1.17,2.18a2.1,2.1,0,0,1-1,1,2.2,2.2,0,0,1-1.25.22,2.52,2.52,0,0,1-1.15-.46,1.91,1.91,0,0,1-.7-1,11.16,11.16,0,0,1-.36-2.44c-.07-1.09-.14-2.23-.21-3.43S222.61,37,222.5,36a16.3,16.3,0,0,0-.43-2.57c-.58.65-1.25,1.4-2,2.27s-1.48,1.73-2.22,2.6-1.4,1.69-2,2.45l-1.38,1.75a1.62,1.62,0,0,1-1.12.67,2.09,2.09,0,0,1-1.19-.19,2.42,2.42,0,0,1-.93-.75A1.31,1.31,0,0,1,210.93,41.17Z"/></svg>