<svg xmlns="http://www.w3.org/2000/svg" xmlns:xlink="http://www.w3.org/1999/xlink" viewBox="0 0 812.13 165.75"><defs><style>.cls-1{isolation:isolate;}.cls-2{mask:url(#mask);}.cls-3{mix-blend-mode:multiply;}.cls-4{fill:#fff;}.cls-5{filter:url(#luminosity-noclip);}</style><filter id="luminosity-noclip" x="-50.03" y="0" width="355.96" height="553.22" filterUnits="userSpaceOnUse" color-interpolation-filters="sRGB"><feFlood flood-color="#fff" result="bg"/><feBlend in="SourceGraphic" in2="bg"/></filter><mask id="mask" x="-50.03" y="0" width="355.96" height="553.22" maskUnits="userSpaceOnUse"><g class="cls-5"/></mask></defs><title>Logo_ski_crew_vertical</title><g class="cls-1"><g id="objects"><g class="cls-2"><g class="cls-3"><path class="cls-4" d="M267.13,159.52l-8.74-4.35,3.21-6.42a1.79,1.79,0,0,0-.28-2.08,1.75,1.75,0,0,0-2.82.45l-3.24,6.49L46.09,49.27l1.68-3.36L8.12,26.13a5.63,5.63,0,0,0-6.75,1.18,5.52,5.52,0,0,0,.94,8.13C4.62,43.3,7.26,51.15,11.88,58c2.31,3.42,10,14.12,14.91,10.89,5.92-3.87.07-13.21-2.51-17.13a76.16,76.16,0,0,0-6.51-8.5L42.86,55.76l1.67-3.36L253.7,156.74l-3.21,6.42a1.74,1.74,0,0,0,1.54,2.59,1.73,1.73,0,0,0,1.56-1l3.24-6.48,8.78,4.38a1.81,1.81,0,0,0,.78.18,1.75,1.75,0,0,0,1.75-1.6A1.79,1.79,0,0,0,267.13,159.52ZM17.25,47.21C18.76,49.08,31,65.62,24.12,66.14c-2,.16-6.68-5.76-7.79-7.15a47.61,47.61,0,0,1-5.84-9.57A90.29,90.29,0,0,1,6,37.37l3.55,1.77A73.39,73.39,0,0,1,17.25,47.21Z"/><path class="cls-4" d="M304,27.31a5.63,5.63,0,0,0-6.75-1.18L257.62,45.91l1.68,3.36L50.13,153.6l-3.2-6.42a1.8,1.8,0,0,0-1.83-1,1.75,1.75,0,0,0-1.34,2.52L47,155.17l-8.73,4.35a1.78,1.78,0,0,0-1,1.74,1.75,1.75,0,0,0,1.75,1.6,1.81,1.81,0,0,0,.78-.18l8.78-4.38,3.24,6.48a1.74,1.74,0,0,0,1.57,1,1.78,1.78,0,0,0,1.28-.55,1.81,1.81,0,0,0,.25-2l-3.21-6.41L260.86,52.4l1.68,3.36,25.08-12.52a76.08,76.08,0,0,0-6.5,8.5c-2.59,3.92-8.44,13.26-2.52,17.13,4.94,3.23,12.61-7.47,14.92-10.89,4.61-6.83,7.25-14.68,9.56-22.54A5.52,5.52,0,0,0,304,27.31ZM289.07,59c-1.11,1.39-5.78,7.31-7.8,7.15-6.84-.52,5.36-17.06,6.88-18.93a72.38,72.38,0,0,1,7.68-8.07l3.55-1.77a90.29,90.29,0,0,1-4.48,12.05A48,48,0,0,1,289.07,59Z"/><path class="cls-4" d="M202,22.11c-4-1.66-16,15.34-16,15.34S166.36,16.11,161,9.78,153.36-1.55,148.36.45s-33.5,40.66-33.5,40.66-3.33-3.33-9.5-8.33c-4-3.2-8.5-8.67-11.5-8.67S67.7,51.45,67.7,51.45l84.66,42.33L237.7,51.45S206,23.78,202,22.11Zm-97,18.55c-.92.33-4.14,5.08-7.12,9s-9.82,7-9.82,7-1.36-2.1-.75-3.5.3-5.91.94-8.77a34.48,34.48,0,0,1,4.15-9.92,22.44,22.44,0,0,0,2.12-4.37,1.53,1.53,0,0,1,2.52-.55l10,10.09A11.11,11.11,0,0,1,105.05,40.66Zm54.55-21.5a71.3,71.3,0,0,0-6.66,8.94,43.88,43.88,0,0,0-5.16,9.3,48.88,48.88,0,0,1-1.73,4.89c-1.29,2.7-3.56,4.79-5.38,7.18a24.78,24.78,0,0,0-4.55,10.17l-3,.93-9.58-9.78c-1.72-1.75-3.55-3.74-3.67-6.2s1.34-4.41,2.73-6.28l5.92-8Q137,18.94,145.45,7.55c1.51-2,3.54-5.08,6-4.27a7.43,7.43,0,0,1,2.49,2.12l6.59,9.09a3.87,3.87,0,0,1,.7,1.31C161.47,17.06,160.47,18.21,159.6,19.16ZM188,39s7.75-9.42,9.58-11.75a8.91,8.91,0,0,1,2.57-2.14,1.59,1.59,0,0,1,2.38,1.36,14.78,14.78,0,0,0,.72,5.11c1,2.17,1.33,10.5,2.16,14.33s-.5,11-.5,11Z"/></g></g><path class="cls-4" d="M745.73,133.91a7.12,7.12,0,0,0,3.16,1.5,6.17,6.17,0,0,0,3.51-.35,4.85,4.85,0,0,0,2.64-2.82l2.54-6.14c1.12-2.7,2.35-5.59,3.69-8.7s2.7-6.21,4-9.31,2.55-5.82,3.61-8.17a54.2,54.2,0,0,1,3.16,7q1.75,4.56,3.51,9.66t3.43,9.66a33.21,33.21,0,0,0,3.07,6.68,5.48,5.48,0,0,0,2.81,2.19,6.88,6.88,0,0,0,3.6.27,6.18,6.18,0,0,0,3.25-1.76,6.62,6.62,0,0,0,1.76-3.86c.11-1.29.53-3.72,1.23-7.3s1.58-7.9,2.63-13,2.23-10.81,3.52-17.13,2.57-13,3.86-19.94,2.58-14.11,3.87-21.43,2.46-14.5,3.51-21.52a9.61,9.61,0,0,0-5.88,1.75c-1.59,1.18-3,3.64-4.31,7.38a54,54,0,0,0-1.67,6.77q-1,4.83-2.28,11.59t-2.81,14.84q-1.5,8.09-3.08,16.52t-3.25,16.6q-1.67,8.16-3.07,15-2.81-6.49-5.18-13.09t-4.48-11.77a56,56,0,0,0-4-8.26q-1.94-3.06-4-2.54c-1.06.23-2.29,1.64-3.69,4.21S761.48,94,760,97.29s-3,6.53-4.31,9.75A62.56,62.56,0,0,1,752.4,114q0-1.05-.7-6.49T749.94,94.3q-1.05-7.72-2.19-16.51t-2.29-16.43q-1.14-7.63-1.93-13.09t-1-6.5a35.24,35.24,0,0,0-3.07-9c-1.23-2.29-3.78-3.54-7.64-3.78q.35,6.5,1.32,15.46t2.28,19q1.32,10,2.72,20.29t2.64,19.5q1.23,9.22,2.11,16.51t1.23,11.51A4,4,0,0,0,745.73,133.91Zm-31.62.62a10,10,0,0,0,4.21-.88,8.28,8.28,0,0,0,3.08-2.28,7.32,7.32,0,0,0,1.49-3,4.4,4.4,0,0,0-.35-3l-53-.35-.71-41.46,30.4-.52a10,10,0,0,0,4.21-.88,8.4,8.4,0,0,0,3.08-2.29,7.22,7.22,0,0,0,1.49-3,4.45,4.45,0,0,0-.35-3h-39q-.18-11.76-.26-18.44c-.07-4.45-.09-7.82-.09-10.1s0-3.78-.09-4.48-.09-1.23-.09-1.59l45.15.18a8.21,8.21,0,0,0,4.13-1.05,9.84,9.84,0,0,0,3-2.55,7,7,0,0,0,1.41-3.16,5,5,0,0,0-.44-3.08H669.49a11.51,11.51,0,0,0-8.08,2.73,9.55,9.55,0,0,0-3,7.46l1.05,87.31c0,3,1.09,5.09,3.25,6.15a15.72,15.72,0,0,0,6.94,1.58Zm-113-72.82A39.87,39.87,0,0,1,605.72,51a31.2,31.2,0,0,1,7.2-8.17,22,22,0,0,1,9.31-4.39,16,16,0,0,1,8.35.08,12.83,12.83,0,0,1,5.79,3.61,12.33,12.33,0,0,1,2.9,5.79,14.38,14.38,0,0,1-.17,6.68q-1.94,7.73-7.12,11.86a32.59,32.59,0,0,1-11.15,5.88,44.15,44.15,0,0,1-11.77,1.85,53,53,0,0,1-9-.44A34.81,34.81,0,0,1,601.15,61.71Zm-7.55,72.38c1.28-.53,2.37-2.28,3.25-5.27a75.5,75.5,0,0,0,2.1-13.88q.79-9.39,1.15-26.44,2.63,3.16,6.23,8.26t7.91,10.72q4.31,5.61,8.87,11.15a79.89,79.89,0,0,0,9.22,9.57,33.61,33.61,0,0,0,9.14,5.89,10.6,10.6,0,0,0,8.34.26l-42-50.94A46.16,46.16,0,0,0,620,82a42.62,42.62,0,0,0,12.65-5.27,39.84,39.84,0,0,0,10.45-9.4,27.47,27.47,0,0,0,5.53-13.61A22.43,22.43,0,0,0,647.44,43a20,20,0,0,0-5.71-8.25,21.87,21.87,0,0,0-9.49-4.66A29.18,29.18,0,0,0,620.12,30a32.28,32.28,0,0,0-10.54,4.31,33.5,33.5,0,0,0-9.13,8.34,15.37,15.37,0,0,0,.26-4.92,10.62,10.62,0,0,0-1.49-4.48A9,9,0,0,0,596,30.09a8.54,8.54,0,0,0-4.83-1q0,4-.18,12.56T590.52,61q-.25,10.8-.52,22.66T589.47,106q-.27,10.45-.35,18.27c-.06,5.21-.09,8.76-.09,10.63A12,12,0,0,0,593.6,134.09Zm-19.94-1.76c3.34-1.69,5.24-4.13,5.71-7.29q-13,2.46-22,.62a28.18,28.18,0,0,1-14.49-7.29A30.69,30.69,0,0,1,535,104.31a66,66,0,0,1-2-19.67,57.57,57.57,0,0,1,3.6-18.71,44.7,44.7,0,0,1,9-14.67A40.37,40.37,0,0,1,559,41.69a39.09,39.09,0,0,1,16.86-3.25A7,7,0,0,0,573.48,33a11.85,11.85,0,0,0-6.06-2.72,22.83,22.83,0,0,0-8.34.35,35.44,35.44,0,0,0-9.58,3.6,44.51,44.51,0,0,0-9.31,6.94,58.07,58.07,0,0,0-8.78,10.72,63.45,63.45,0,0,0-6.76,14.22,60.61,60.61,0,0,0-3.08,17.31,76.74,76.74,0,0,0,1.58,20.2,47.78,47.78,0,0,0,6.94,16.78,35.34,35.34,0,0,0,12.3,11.24q7.47,4.13,17.83,3.6Q568.65,134.89,573.66,132.33Zm-109-5.18a9.11,9.11,0,0,0,1.32,4.13,9.39,9.39,0,0,0,2.72,2.9,8.14,8.14,0,0,0,3.34,1.31,4.51,4.51,0,0,0,3.16-.61L473.79,47a57.31,57.31,0,0,0-.44-8.52,11,11,0,0,0-1.32-4,9.35,9.35,0,0,0-3.69-3.69,7.94,7.94,0,0,0-4.92-.88Zm-57,6.59a14.1,14.1,0,0,0,3.16-6.5,48.76,48.76,0,0,0,1.14-9.31q.18-5.19,0-10.72c-.12-3.69-.26-7.29-.44-10.8a73.66,73.66,0,0,1,.09-9.49L451.83,137a9.35,9.35,0,0,0,2-7.2,24.4,24.4,0,0,0-3.07-9A83.86,83.86,0,0,0,444,110.46q-4.12-5.44-8.87-11.24l-9.48-11.6q-4.76-5.79-8.61-11.41,6.15-5.8,13.44-12.39a147,147,0,0,0,12.82-13A41.94,41.94,0,0,0,451,38.61q2.19-5.79-1.67-9.84-4.22,4.39-9.48,9.84T429.43,49.33q-5.18,5.27-9.92,9.75A94,94,0,0,1,411.43,66q0-7.2-.09-14a79.61,79.61,0,0,0-1-12,20,20,0,0,0-3.07-8.35,7,7,0,0,0-6.41-2.9q.17,29,.35,55.08t.52,52.08A7.14,7.14,0,0,0,407.65,133.74ZM367,135.06a31.52,31.52,0,0,0,10.81-4,26.86,26.86,0,0,0,8.25-7.81,29.58,29.58,0,0,0,4.66-12.13q1.4-8.43-1.5-14.4a32.26,32.26,0,0,0-8.08-10.45A65.84,65.84,0,0,0,369.7,78.4q-6.22-3.42-11.59-6.76a40.89,40.89,0,0,1-8.7-7A9.71,9.71,0,0,1,347,56q1.41-8.07,6.5-12.38t13.88-3.78A16.94,16.94,0,0,1,372.69,41a23,23,0,0,1,4.48,2.46,43.46,43.46,0,0,1,4.13,3.34q2,1.84,4.13,3.95c1.64-2.81,2.1-5.44,1.4-7.9a13.58,13.58,0,0,0-4-6.41,23.81,23.81,0,0,0-7-4.4,23,23,0,0,0-7.55-1.84,34,34,0,0,0-10.71,1.05,30.1,30.1,0,0,0-10,4.66,27.72,27.72,0,0,0-7.64,8.34,26.75,26.75,0,0,0-3.6,12,18.58,18.58,0,0,0,2.9,12.12,36.68,36.68,0,0,0,8.78,9,96,96,0,0,0,11.6,7.29,100.3,100.3,0,0,1,11.33,7,29.82,29.82,0,0,1,7.9,8.17q2.81,4.48,1.58,10.81a21.15,21.15,0,0,1-4.92,9.92,19,19,0,0,1-8,5.27,19.55,19.55,0,0,1-9.4.71,20.77,20.77,0,0,1-8.87-3.61,21.28,21.28,0,0,1-6.5-7.73,23.85,23.85,0,0,1-2.37-11.77q-5.44,1.25-6.94,5.8a14.32,14.32,0,0,0,.62,9.93,27.8,27.8,0,0,0,7.37,10.19,26.92,26.92,0,0,0,13.18,6.41A55,55,0,0,0,367,135.06Z"/></g></g></svg>